<svg xmlns="http://www.w3.org/2000/svg" xmlns:xlink="http://www.w3.org/1999/xlink" version="1.1" x="0px" y="0px" viewBox="0 0 377.768 522.53125" style="enable-background:new 0 0 377.768 418.025;" xml:space="preserve"><path d="M35.898,184.554c29.921,6.861,63.875-28.224,73.212-35.439c9.337-7.215,18.673-1.484,21.433-1.061  c2.759,0.425,5.942,2.971,5.306,6.366c-0.637,3.396-2.971,2.546-4.668,3.396c-1.698,0.85-2.547,2.972-1.91,5.729  c0.635,2.759,2.971,2.972,4.456,3.395c1.485,0.425-0.213,3.396,1.273,4.032c1.485,0.638,1.91,2.123,0.636,2.972  c-1.273,0.849-5.73,4.456-7.003,8.063c-1.273,3.607-1.273,14.431-1.486,17.402c-0.21,2.972,0.212,7.639,1.062,10.821  c0.849,3.185,0.849,9.126,2.334,14.431c1.485,5.306,5.093,4.669,6.579,7.64c1.485,2.972,4.457,3.607,9.125,7.428  c4.669,3.82,2.759,15.278,2.971,21.434c0.213,6.154,0.425,13.793-0.212,18.462c-0.637,4.669-1.697,4.669-0.637,7.427  c1.062,2.759,3.184,4.032,3.607,7.428c0.424,3.396-1.273,5.305-0.212,7.003c1.061,1.698,2.122-0.425,3.183-0.212  c1.062,0.212-1.273,4.667,0.849,4.881c2.122,0.212,0.425,1.91,1.699,2.971c1.273,1.063,0.212,2.97,1.696,5.306  c1.486,2.333,2.971,3.606,5.306,7.003c2.334,3.395,0.425,24.616,0.425,28.436c0,3.818-1.274,9.974-2.335,12.308  c-1.061,2.335-2.122,11.459-2.335,16.765c-0.211,5.305-0.848,9.337-4.456,16.34c-3.607,7.003,0.637,11.884,4.881,15.278  c4.245,3.397,4.668,0.85,5.729,1.06c1.062,0.214,0.849,2.123,2.334,3.609c1.486,1.485,7.429,2.334,12.521,2.758  c5.093,0.425,6.366-2.546,6.579-4.668c0.212-2.122,0.635-3.608-0.637-4.881c-1.273-1.273-1.273-4.457-0.637-7.216  c0.635-2.749,0.427-6.13,2.317-6.151c1.89,0.022,1.682,3.402,2.317,6.151c0.636,2.759,0.636,5.942-0.637,7.216  c-1.273,1.272-0.849,2.759-0.637,4.881c0.213,2.122,1.486,5.093,6.58,4.668c5.092-0.424,11.034-1.273,12.52-2.758  c1.485-1.486,1.274-3.396,2.334-3.609c1.061-0.211,1.485,2.336,5.729-1.06c4.244-3.395,8.488-8.275,4.881-15.278  c-3.608-7.003-4.245-11.035-4.457-16.34c-0.212-5.306-1.273-14.43-2.334-16.765c-1.061-2.334-2.334-8.489-2.334-12.308  c0-3.82-1.909-25.041,0.425-28.436c2.334-3.397,3.819-4.67,5.304-7.003c1.486-2.336,0.425-4.243,1.698-5.306  c1.273-1.06-0.425-2.759,1.698-2.971c2.122-0.214-0.212-4.669,0.849-4.881c1.061-0.213,2.123,1.91,3.184,0.212  c1.061-1.698-0.636-3.607-0.213-7.003c0.425-3.396,2.547-4.669,3.608-7.428c1.062-2.758,0-2.758-0.637-7.427  c-0.637-4.669-0.424-12.308-0.212-18.462c0.212-6.155-1.697-17.613,2.971-21.434c4.668-3.82,7.64-4.456,9.125-7.428  c1.485-2.971,5.092-2.334,6.579-7.64c1.484-5.305,1.484-11.246,2.333-14.431c0.849-3.183,1.274-7.85,1.06-10.821  c-0.212-2.972-0.212-13.795-1.486-17.402c-1.273-3.607-5.729-7.215-7.002-8.063s-0.848-2.334,0.638-2.972  c1.485-0.637-0.213-3.607,1.272-4.032c1.485-0.423,3.82-0.636,4.456-3.395c0.636-2.758-0.211-4.88-1.91-5.729  c-1.698-0.85-4.032,0-4.669-3.396c-0.636-3.396,2.546-5.941,5.307-6.366c2.758-0.424,12.095-6.154,21.432,1.061  c9.338,7.216,43.292,42.301,73.212,35.439c18.762-4.303,35.107-26.9,35.864-57.933c0.211-8.701,0.238-52.23-25.253-93.586  c-3.183-5.162-23.201-38.259-32.327-32.326c-5.658,3.679,5.858,8.298,13.865,39.33c2.264,8.771,12.449,54.043,8.771,72.716  c-3.677,18.676-7.073,35.086-17.825,36.502c-10.753,1.414-42.725-41.311-69.039-58.005c-26.315-16.693-35.935-20.65-46.97-13.292  c-11.035,7.356-7.923,18.963-18.392,18.963h-3.36c-10.469,0-7.357-11.607-18.392-18.963c-11.035-7.357-20.655-3.398-46.97,13.295  c-26.314,16.694-58.287,59.418-69.04,58.004c-10.751-1.416-14.146-17.827-17.824-36.503c-3.679-18.673,6.508-63.945,8.77-72.716  C51.758,9.007,63.273,4.388,57.615,0.709c-9.127-5.933-29.144,27.164-32.326,32.326C-0.204,74.391-0.177,117.92,0.034,126.621  C0.792,157.653,17.136,180.251,35.898,184.554z M229.47,197.357c1.415-0.85,1.696,1.415,2.263,2.264  c0.565,0.849,1.982-0.849,2.829-1.698c0.85-0.849,1.698-1.98,3.113-3.395c1.415-1.415,0.849-4.527,1.697-6.792  c0.85-2.263,1.194-8.7,2.83-8.486c6.509,0.848,5.094,16.977,4.811,21.786c-0.283,4.81-1.98,4.526-1.415,12.731  c0.566,8.206-2.547,12.168-4.526,12.732c-1.981,0.566-6.509-1.131-7.64-3.96c-0.969-2.423-2.829-3.963-0.565-4.811  c2.262-0.849,3.678-2.829,1.697-4.245c-1.981-1.414-3.677-2.828-2.546-3.395c1.133-0.566,1.415-3.395,0.283-4.526  c-1.131-1.132-2.546-3.113-4.244-4.527C226.357,199.621,228.055,198.205,229.47,197.357z M211.219,185.191  c0.85-2.829,3.962-5.659,2.83-8.205c-1.131-2.546-1.938-7.134-0.565-6.791c1.131,0.283,2.546,9.056,1.131,11.317  c-1.415,2.264-2.546,10.47-3.396,9.903C209.381,190.189,210.37,188.02,211.219,185.191z M191.696,341.66  c0.106-3.404,2.83-14.714,3.679-18.675c0.849-3.962,4.951-7.861,6.791-7.074c3.961,1.699,4.526,17.261,2.828,24.051  c-1.697,6.791-2.828,20.09-4.244,26.599c-1.414,6.506,0.284,13.298,0.566,17.259c0.283,3.961-1.415,9.62-2.829,7.356  c-1.414-2.264-4.244-21.222-4.528-29.709C193.677,352.979,191.412,350.714,191.696,341.66z M175.603,315.911  c1.839-0.787,5.942,3.112,6.791,7.074c0.849,3.961,3.573,15.271,3.679,18.675c0.283,9.054-1.98,11.318-2.264,19.807  c-0.283,8.487-3.112,27.445-4.528,29.709c-1.414,2.264-3.111-3.395-2.829-7.356c0.283-3.961,1.98-10.753,0.566-17.259  c-1.416-6.509-2.547-19.808-4.244-26.599C171.076,333.172,171.642,317.61,175.603,315.911z M164.285,170.194  c1.372-0.343,0.566,4.245-0.566,6.791c-1.131,2.546,1.98,5.376,2.831,8.205c0.848,2.829,1.838,4.998,0,6.225  c-0.85,0.566-1.981-7.64-3.396-9.903C161.739,179.25,163.154,170.478,164.285,170.194z M140.094,194.528  c1.415,1.414,2.263,2.546,3.112,3.395c0.848,0.85,2.264,2.547,2.83,1.698c0.566-0.849,0.849-3.113,2.264-2.264  c1.415,0.848,3.113,2.264,1.415,3.679c-1.698,1.414-3.112,3.396-4.244,4.527c-1.131,1.132-0.849,3.96,0.283,4.526  c1.131,0.566-0.566,1.98-2.547,3.395c-1.98,1.416-0.566,3.396,1.698,4.245c2.263,0.848,0.403,2.388-0.565,4.811  c-1.132,2.829-5.659,4.526-7.64,3.96c-1.981-0.564-5.094-4.526-4.527-12.732c0.567-8.205-1.132-7.922-1.415-12.731  c-0.284-4.81-1.697-20.938,4.81-21.786c1.636-0.214,1.98,6.224,2.829,8.486C139.245,190.001,138.679,193.113,140.094,194.528z"/><text x="0" y="433.025" fill="#000000" font-size="5px" font-weight="bold" font-family="'Helvetica Neue', Helvetica, Arial-Unicode, Arial, Sans-serif">Created by Gan Khoon Lay</text><text x="0" y="438.025" fill="#000000" font-size="5px" font-weight="bold" font-family="'Helvetica Neue', Helvetica, Arial-Unicode, Arial, Sans-serif">from the Noun Project</text></svg>